<svg id="Warstwa_1" data-name="Warstwa 1" xmlns="http://www.w3.org/2000/svg" width="358.59" height="194.03" viewBox="0 0 358.59 194.03"><defs><style>.cls-1{fill:#192a40;}.cls-2{fill:#bb1753;}</style></defs><path class="cls-1" d="M136.17,117.17a53.59,53.59,0,0,1-103.4-19.8,56.2,56.2,0,0,1,1.1-11,53.43,53.43,0,0,1,52.3-42.7,52,52,0,0,1,15.3,2.3,9.29,9.29,0,0,1,1.3.4c.3.1.5.2.8.3a53.93,53.93,0,0,1,32.3,29.9l6.4-14.2H137a61.64,61.64,0,1,0-.6,69.8h6.5Z"/><polygon class="cls-2" points="99.77 122.07 77.07 122.07 62.77 100.57 89.87 100.57 89.87 105.37 104.67 95.47 89.87 86.37 89.87 91.87 62.77 91.87 77.07 70.37 99.77 70.37 99.77 76.47 114.57 66.57 99.77 57.37 99.77 62.67 72.97 62.67 50.57 96.27 72.97 129.77 99.77 129.77 99.77 135.77 114.57 125.87 99.77 116.67 99.77 122.07"/><path class="cls-1" d="M127.87,80.27l8.8,19.1,8.8-19.1h6.6l-15.5,31.6-15.4-31.6Z"/><path class="cls-1" d="M186.77,96.47h-23.4a10.72,10.72,0,0,0,2.6,7.1,8.26,8.26,0,0,0,6.6,3,9,9,0,0,0,5.3-1.5,14.73,14.73,0,0,0,3.9-4.5l5,2.8a16,16,0,0,1-5.9,6.2,15.62,15.62,0,0,1-8.3,2.2,14.33,14.33,0,0,1-7.9-2.1,14.18,14.18,0,0,1-5.3-5.8,18.29,18.29,0,0,1-1.8-8.2,21.14,21.14,0,0,1,1.7-8.5,13.27,13.27,0,0,1,5.1-5.9,15.27,15.27,0,0,1,8.1-2.1,15.07,15.07,0,0,1,6.3,1.2,12.77,12.77,0,0,1,4.5,3.4,13.41,13.41,0,0,1,2.6,5.2,28.17,28.17,0,0,1,.7,3.1,18.29,18.29,0,0,1,.2,3.3v1.1Zm-23-4.4h17.1a9.12,9.12,0,0,0-2.8-5.6,8,8,0,0,0-5.7-2.1,7.69,7.69,0,0,0-5.7,2.2A9.25,9.25,0,0,0,163.77,92.07Z"/><path class="cls-1" d="M203.77,80.27v4.1h.1a8.68,8.68,0,0,1,2.3-2.7,10.86,10.86,0,0,1,3.2-1.7,11.48,11.48,0,0,1,3.7-.6,11.15,11.15,0,0,1,6.5,1.7,9.32,9.32,0,0,1,3.4,4.6,21.11,21.11,0,0,1,1,7v18.2h-5.9V93.37a22.62,22.62,0,0,0-.1-2.7,11.21,11.21,0,0,0-.4-2.1,5.31,5.31,0,0,0-1.9-2.9,7.49,7.49,0,0,0-4.4-1.1,7,7,0,0,0-5.1,1.7,8.39,8.39,0,0,0-2.1,4.2c-.1.7-.2,1.7-.3,2.7s-.1,2.2-.1,3.5v14.1h-5.9V80.17h6Z"/><path class="cls-1" d="M243.67,85.67v25.1h-5.9V85.67h-3.2v-5.5h3.2V68.47h5.9v11.7h5.7v5.5Z"/><path class="cls-1" d="M264.57,80.27v5h.2a8.94,8.94,0,0,1,3.3-4.3,9.07,9.07,0,0,1,5.1-1.6,8.5,8.5,0,0,1,4.8,1.5l-2.7,5.4a5.58,5.58,0,0,0-3.6-1.2,5.76,5.76,0,0,0-4.5,1.6,8.68,8.68,0,0,0-2.1,3.9,27.59,27.59,0,0,0-.5,5.4v15h-5.9V80.37h5.9Z"/><path class="cls-1" d="M293.47,80.27v30.6h-5.9V80.27Z"/><path class="cls-1" d="M313.77,94.27l-11-14h6.9l7.3,9.9,7.9-9.9H332l-11.2,14,13.1,16.6H327l-10-12.4-9.7,12.4h-7.2Z"/><path class="cls-2" d="M290.57,66.47a3.8,3.8,0,0,1,3,1.3,4.3,4.3,0,0,1,1.2,3.1,4.23,4.23,0,0,1-1.2,3,4.07,4.07,0,0,1-3,1.2,4.41,4.41,0,0,1-3-1.2,4.16,4.16,0,0,1-1.3-3,4.47,4.47,0,0,1,1.2-3.1A5,5,0,0,1,290.57,66.47Z"/><path class="cls-1" d="M199.6,125.84a3.93,3.93,0,0,1,1.25-1.71,2.94,2.94,0,0,1,1.82-.59,3.35,3.35,0,0,1,2.76,1.31,6.33,6.33,0,0,1,0,7,3.36,3.36,0,0,1-2.75,1.33,3.09,3.09,0,0,1-1.72-.49,3.3,3.3,0,0,1-1.19-1.38,5.09,5.09,0,0,1,.17.88,9.34,9.34,0,0,1,.06,1.14v2.55h-1.93V123.7h1.79c0,.35,0,.7-.09,1.06S199.67,125.48,199.6,125.84Zm2.6,5.64a1.94,1.94,0,0,0,1.67-.87,4.73,4.73,0,0,0,0-4.68,1.92,1.92,0,0,0-1.65-.87,1.94,1.94,0,0,0-1.66.86,4.73,4.73,0,0,0,0,4.68A1.92,1.92,0,0,0,202.2,131.48Z"/><path class="cls-1" d="M212.41,133.24a4,4,0,0,1-3.16-1.32,6,6,0,0,1,0-7.15,4,4,0,0,1,3.16-1.33,4.05,4.05,0,0,1,3.18,1.33,6,6,0,0,1,0,7.14A4,4,0,0,1,212.41,133.24Zm0-1.54a2,2,0,0,0,1.71-.91,4.17,4.17,0,0,0,.64-2.46,4.25,4.25,0,0,0-.64-2.47,2,2,0,0,0-3.38,0,5.16,5.16,0,0,0,0,4.94A1.94,1.94,0,0,0,212.41,131.7Z"/><path class="cls-1" d="M225.32,123.7l1.92,7.86q.12-.63.24-1.17c.08-.36.16-.69.25-1l1.57-5.7h1.78L228.27,133h-2l-1.36-5h0a18.65,18.65,0,0,1-.59-2.74c-.05.4-.12.83-.22,1.28s-.21.92-.35,1.43l-1.36,5h-2l-2.83-9.28h1.79l2,7.86c0-.27.11-.58.18-.92s.19-.78.32-1.3l1.43-5.64Z"/><path class="cls-1" d="M240.13,131.29a4.61,4.61,0,0,1-1.64,1.47,4.55,4.55,0,0,1-2.13.48,4.22,4.22,0,0,1-3.28-1.31,6,6,0,0,1,0-7.17,4.48,4.48,0,0,1,6.36,0,5.46,5.46,0,0,1,1.16,3.69v.17h-6.74v.2a3.12,3.12,0,0,0,.72,2.13,2.29,2.29,0,0,0,1.8.82,2.64,2.64,0,0,0,1.3-.32,3.74,3.74,0,0,0,1.08-1Zm-6.29-3.82h4.91a3.35,3.35,0,0,0-.77-2,2.41,2.41,0,0,0-3.37,0A3.22,3.22,0,0,0,233.84,127.47Z"/><path class="cls-1" d="M242.55,133V123.7h1.87c0,.35,0,.72,0,1.11s-.07.82-.12,1.3a5.2,5.2,0,0,1,1.2-1.92,2.25,2.25,0,0,1,1.58-.62,2,2,0,0,1,.47.05,5.69,5.69,0,0,1,.59.15l-.45,1.93a4,4,0,0,0-.48-.17,2.1,2.1,0,0,0-.43,0,1.89,1.89,0,0,0-1.63.89,4.25,4.25,0,0,0-.61,2.43V133Z"/><path class="cls-1" d="M256.74,131.29a4.32,4.32,0,0,1-3.77,2,4.2,4.2,0,0,1-3.27-1.31,5.07,5.07,0,0,1-1.19-3.59,5.2,5.2,0,0,1,1.17-3.58,4.49,4.49,0,0,1,6.37,0,5.45,5.45,0,0,1,1.15,3.69v.17h-6.73v.2a3.12,3.12,0,0,0,.72,2.13,2.26,2.26,0,0,0,1.8.82,2.62,2.62,0,0,0,1.29-.32,3.51,3.51,0,0,0,1.08-1Zm-6.29-3.82h4.91a3.28,3.28,0,0,0-.76-2,2.19,2.19,0,0,0-1.68-.68,2.22,2.22,0,0,0-1.7.69A3.34,3.34,0,0,0,250.45,127.47Z"/><path class="cls-1" d="M265.43,133c0-.3,0-.62.08-1s.1-.7.16-1.09a4,4,0,0,1-1.24,1.71,3,3,0,0,1-1.83.6,3.37,3.37,0,0,1-2.76-1.31,5.5,5.5,0,0,1-1-3.5,5.44,5.44,0,0,1,1.05-3.49,3.35,3.35,0,0,1,2.75-1.32,3.11,3.11,0,0,1,1.72.48,3.33,3.33,0,0,1,1.2,1.36,3.51,3.51,0,0,1-.18-.87,9.64,9.64,0,0,1-.06-1.15v-2.89h1.93V133Zm-2.38-1.25a1.94,1.94,0,0,0,1.66-.87,4.73,4.73,0,0,0,0-4.68,1.92,1.92,0,0,0-1.65-.87,2,2,0,0,0-1.66.86,4.74,4.74,0,0,0,0,4.69A2,2,0,0,0,263.05,131.73Z"/><path class="cls-1" d="M275.39,133V120.55h1.93v2.89a9.64,9.64,0,0,1-.06,1.15,4.79,4.79,0,0,1-.17.87,3.24,3.24,0,0,1,1.19-1.36,3.11,3.11,0,0,1,1.72-.48,3.35,3.35,0,0,1,2.75,1.32,5.38,5.38,0,0,1,1.06,3.49,5.45,5.45,0,0,1-1.05,3.5,3.37,3.37,0,0,1-2.76,1.31,3,3,0,0,1-1.82-.6,3.93,3.93,0,0,1-1.25-1.71c.07.39.12.75.16,1.09s.07.66.08,1Zm4.16-1.25a2,2,0,0,0,1.65-.87,4.74,4.74,0,0,0,0-4.69,2,2,0,0,0-1.67-.86,1.93,1.93,0,0,0-1.64.87,4.73,4.73,0,0,0,0,4.68A2,2,0,0,0,279.55,131.73Z"/><path class="cls-1" d="M293.46,123.7l-5.2,12.18h-2.12l1.75-3.89-3.3-8.29h2.19l2.22,6.18,2.41-6.18Z"/><path class="cls-1" d="M305.61,120.74a6.5,6.5,0,0,1,3.8.91,3,3,0,0,1,1.28,2.68,3.09,3.09,0,0,1-1,2.44,5.19,5.19,0,0,1-3,1.06L312,133h-2.58l-5.23-5.15h-1.33V133h-2V120.74Zm-2.73,5.58h1.61a7.84,7.84,0,0,0,3.25-.46,1.61,1.61,0,0,0,.9-1.56,1.65,1.65,0,0,0-.82-1.59,8.26,8.26,0,0,0-3.33-.44h-1.61Z"/><path class="cls-1" d="M312.76,130.11l1.7-.52a2.9,2.9,0,0,0,1,1.53,3,3,0,0,0,1.78.52,2.37,2.37,0,0,0,1.64-.54,1.85,1.85,0,0,0,.61-1.46,1.58,1.58,0,0,0-.49-1.21,7.26,7.26,0,0,0-2.21-1.1A7.79,7.79,0,0,1,314,125.8a2.8,2.8,0,0,1-.81-2,3,3,0,0,1,1.07-2.36,4.11,4.11,0,0,1,2.78-.93,4.69,4.69,0,0,1,2.1.47,5.12,5.12,0,0,1,1.72,1.4l-1.31,1.15a4.66,4.66,0,0,0-1.23-1.09,2.51,2.51,0,0,0-1.28-.36,2.08,2.08,0,0,0-1.37.43,1.35,1.35,0,0,0-.52,1.11,1.4,1.4,0,0,0,.34,1,3,3,0,0,0,1.09.73q.67.3,1.59.63a9,9,0,0,1,1.1.45,4.84,4.84,0,0,1,1.71,1.43,3.25,3.25,0,0,1,.48,1.84,3.3,3.3,0,0,1-1.16,2.61,4.4,4.4,0,0,1-3,1,5.22,5.22,0,0,1-3-.83A3.83,3.83,0,0,1,312.76,130.11Z"/><path class="cls-1" d="M329.65,122.36V133h-2V122.36h-4.4v-1.62H334v1.62Z"/></svg>